<svg width="30" height="30" viewBox="0 0 30 30" fill="none" xmlns="http://www.w3.org/2000/svg">
  <g clip-path="url(#clip0_3_171)">
    <path
      d="M29.6131 18.3776C31.4781 10.306 26.4466 2.25081 18.3749 0.385847C10.3033 -1.47912 2.24813 3.55237 0.383164 11.624C-1.4818 19.6956 3.54969 27.7508 11.6213 29.6158C19.6929 31.4807 27.7481 26.4492 29.6131 18.3776Z"
      fill="#D8DBF6" />
    <path
      d="M15.829 10.1699C15.8057 10.809 15.8205 11.4565 15.8205 12.1485H18.3176C18.2118 12.9717 18.1187 13.7314 17.998 14.4868C17.9896 14.563 17.7991 14.654 17.6933 14.6625C17.0923 14.6773 16.4914 14.6709 15.8354 14.6709V23C14.9148 22.9852 14.0303 22.8392 13.186 22.5895V14.6878H11V12.176H13.1394C13.1479 11.9855 13.1627 11.8332 13.1627 11.6893C13.1775 11.0269 13.1542 10.3646 13.2156 9.71071C13.3531 8.27174 14.2356 7.26023 15.6597 7.06131C16.5421 6.93858 17.4648 7.03804 18.3938 7.03804V9.32134C18.0658 9.32134 17.7314 9.31288 17.4034 9.32134C17.1135 9.32981 16.8088 9.31288 16.5273 9.38271C16.1231 9.4737 15.8417 9.7488 15.8269 10.1741L15.829 10.1699Z"
      fill="#A2A6CA" />
  </g>
  <defs>
    <clipPath id="clip0_3_171">
      <rect width="30" height="30" fill="white" />
    </clipPath>
  </defs>
</svg>