<svg width="20" height="16" viewBox="0 0 20 16" fill="none" xmlns="http://www.w3.org/2000/svg">
  <path
    d="M18.6653 1.8999C18.2703 2.0999 17.7766 2.20005 17.3816 2.30005C17.8753 1.80005 18.2703 1.2001 18.4678 0.600098C18.4678 0.500098 18.4678 0.400049 18.369 0.300049C18.2703 0.300049 18.2703 0.300049 18.1716 0.300049C17.5791 0.700049 16.8879 1.0001 16.1967 1.1001H16.0979C15.9992 1.1001 15.8017 1.1 15.703 1C14.913 0.3 14.0243 0 13.0368 0C12.6419 0 12.1481 0.0999512 11.7532 0.199951C10.4695 0.599951 9.38326 1.7001 9.08703 3.1001C8.98828 3.6001 8.8895 4.1001 8.98825 4.6001V4.69995L8.88952 4.80005C6.02591 4.50005 3.35979 3.10005 1.48363 0.800049C1.38488 0.700049 1.28615 0.700049 1.1874 0.800049C1.1874 0.800049 1.1874 0.799902 1.1874 0.899902C0.199951 2.4999 0.496199 4.5999 1.87863 5.8999C1.5824 5.7999 1.28614 5.7 0.989901 5.5C0.891156 5.4 0.792423 5.5001 0.693678 5.6001V5.69995C0.693678 7.29995 1.58235 8.8 3.06353 9.5H2.96481C2.76732 9.5 2.47107 9.4999 2.27358 9.3999C2.17483 9.3999 2.0761 9.5001 1.97735 9.6001V9.69995C2.47108 11.2 3.65601 12.3 5.23594 12.5C3.95225 13.4 2.47108 13.8 0.989901 13.8H0.496175C0.39743 13.8 0.199951 13.9 0.199951 14C0.199951 14.1 0.199963 14.2999 0.397454 14.3999C2.07612 15.3999 4.05098 15.8999 6.02589 15.8999C7.70456 15.8999 9.38325 15.5999 10.8644 14.8999C12.2469 14.2999 13.4318 13.4 14.4192 12.2C15.3079 11.1 16.0979 9.9 16.5916 8.5C17.0854 7.2 17.2829 5.9 17.2829 4.5V4.3999C17.2829 4.1999 17.3816 3.9999 17.5791 3.8999C18.1716 3.3999 18.7641 2.8001 19.1591 2.1001C19.2578 2.0001 19.159 1.90005 19.0603 1.80005C18.8628 1.80005 18.7641 1.7999 18.6653 1.8999Z"
    fill="#4080AA" />
</svg>