<svg width="30" height="30" viewBox="0 0 30 30" fill="none" xmlns="http://www.w3.org/2000/svg">
  <g clip-path="url(#clip0_3_113)">
    <path
      d="M25.605 25.6066C31.4628 19.7487 31.4628 10.2513 25.605 4.3934C19.7471 -1.46446 10.2496 -1.46447 4.39176 4.3934C-1.46611 10.2513 -1.46611 19.7487 4.39176 25.6066C10.2496 31.4645 19.7471 31.4645 25.605 25.6066Z"
      fill="#D8DBF6" />
    <path
      d="M8 19.7474C9.57453 19.7773 10.9871 19.3936 12.2627 18.4344C10.4988 17.8988 9.79626 17.3607 9.53965 16.3567C9.93578 16.3367 10.3294 16.3168 10.723 16.2994C9.33038 15.7662 8.51322 14.8295 8.40609 13.3023C8.83211 13.4144 9.22823 13.519 9.62436 13.6236C8.3463 12.0167 8.08969 10.7711 8.85204 9.60759C10.5013 11.4911 12.5567 12.5623 15.1053 12.7367C15.0929 12.5374 15.0829 12.3879 15.0779 12.2385C15.0281 10.9205 15.5812 9.92649 16.7546 9.346C17.9255 8.76801 19.0616 8.92247 20.0781 9.74711C20.3048 9.93147 20.4916 9.9813 20.7482 9.88413C21.2241 9.70476 21.6999 9.53285 22.2231 9.34102C22.0039 9.97382 21.5953 10.4472 21.0621 10.8308C21.0721 10.8607 21.0846 10.8881 21.0945 10.9156C21.5828 10.791 22.0686 10.6664 22.5569 10.5394C22.5769 10.5593 22.5968 10.5792 22.6143 10.5967C22.2356 10.9778 21.8743 11.3765 21.4757 11.7302C21.2664 11.9171 21.1568 12.084 21.1568 12.383C21.1693 16.8475 17.801 20.5621 13.3689 20.9607C11.5801 21.1201 9.87599 20.7987 8.29149 19.9243C8.19183 19.8695 8.09716 19.8072 8 19.7474Z"
      fill="#A2A6CA" />
  </g>
  <defs>
    <clipPath id="clip0_3_113">
      <rect width="30" height="30" fill="white" />
    </clipPath>
  </defs>
</svg>