<svg width="30" height="30" viewBox="0 0 30 30" fill="none" xmlns="http://www.w3.org/2000/svg">
  <g clip-path="url(#clip0_3_108)">
    <path
      d="M29.5774 18.5376C31.531 10.487 26.5884 2.37699 18.5378 0.42339C10.4872 -1.53021 2.37714 3.4124 0.423539 11.463C-1.53006 19.5137 3.41255 27.6237 11.4632 29.5773C19.5138 31.5309 27.6238 26.5883 29.5774 18.5376Z"
      fill="#D8DBF6" />
    <path
      d="M8 22C8.30082 20.9138 8.5695 19.9034 8.86802 18.8999C8.96447 18.5738 8.93921 18.3143 8.78536 18.0043C6.67959 13.7607 9.47426 8.63289 14.191 8.0565C18.5265 7.52604 22.1961 10.7961 22.1042 15.1109C22.0285 18.645 19.0294 21.6923 15.4815 21.8507C14.2714 21.9058 13.1186 21.6923 12.0117 21.194C11.8188 21.1067 11.5548 21.0929 11.3458 21.1435C10.2596 21.4029 9.18033 21.6946 8.0023 21.9977L8 22ZM9.69701 20.3535C10.3882 20.1744 10.9715 20.0045 11.5662 19.8828C11.7591 19.8414 12.0094 19.8713 12.1817 19.9631C13.0681 20.427 14.0004 20.6796 15.0016 20.698C18.6046 20.7623 21.5049 17.4142 20.8206 13.9053C20.3452 11.4781 18.8549 9.8867 16.446 9.33558C13.9751 8.77067 11.8717 9.56521 10.379 11.6067C8.91854 13.6022 8.87951 15.7539 10.0736 17.9286C10.1769 18.1192 10.2068 18.397 10.1609 18.6129C10.0461 19.1732 9.86924 19.7243 9.69931 20.3535H9.69701Z"
      fill="#A2A6CA" />
    <path
      d="M12.0118 12.128C12.4871 11.4873 13.1255 11.6136 13.4585 12.3209C13.5894 12.5965 13.6192 12.6906 13.7478 13.0052C13.9407 13.4806 13.8971 13.7998 13.5527 14.1075C13.3023 14.3302 13.3253 14.5277 13.4998 14.7849C14.0395 15.584 14.7376 16.1857 15.6217 16.5761C15.8903 16.6955 16.0672 16.6679 16.2647 16.4337C16.8778 15.6988 16.887 15.708 17.755 16.1145C17.856 16.1604 17.9548 16.2086 18.0535 16.2569C18.7195 16.5761 18.8205 17.1754 18.2786 17.7036C17.7251 18.2432 17.0546 18.3649 16.3221 18.1789C14.4505 17.7036 13.1095 16.5255 12.0738 14.9502C11.7592 14.4703 11.5227 13.9605 11.541 13.368C11.603 12.8192 11.7523 12.4725 12.0118 12.1234V12.128Z"
      fill="#A2A6CA" />
  </g>
  <defs>
    <clipPath id="clip0_3_108">
      <rect width="30" height="30" fill="white" />
    </clipPath>
  </defs>
</svg>