<svg width="28" height="14" viewBox="0 0 28 14" fill="none" xmlns="http://www.w3.org/2000/svg">
  <path
    d="M24.6367 7.81097H24.1525C12.8077 7.81097 12.5971 7.81097 1.24824 7.81097C1.04471 7.81665 0.841122 7.80206 0.640484 7.76742C0.465355 7.73352 0.30681 7.64144 0.190602 7.50611C0.074394 7.37078 0.00731142 7.20014 0.000283013 7.0219C-0.00464057 6.83713 0.0548079 6.65638 0.168444 6.51059C0.282081 6.36481 0.442832 6.26304 0.623222 6.2227C0.796361 6.18935 0.972769 6.17576 1.14897 6.18219H24.7299C24.581 6.02114 24.4949 5.91984 24.4007 5.82665C22.9633 4.38627 21.5209 2.94994 20.0896 1.50349C19.9267 1.34895 19.8052 1.15601 19.7362 0.942324C19.694 0.787979 19.7053 0.623915 19.7682 0.476798C19.831 0.32968 19.9419 0.208158 20.0826 0.131983C20.2202 0.0395992 20.3838 -0.00639091 20.5494 0.000715328C20.715 0.00782156 20.8741 0.0676539 21.0033 0.171489C21.1118 0.258029 21.2134 0.352852 21.3072 0.455107L27.2095 6.35033C27.6319 6.77272 27.638 7.22246 27.2217 7.63776C25.2363 9.62107 23.2496 11.6024 21.2616 13.5816C21.0998 13.7554 20.8987 13.8877 20.6751 13.9675C20.3156 14.0688 20.0035 13.9301 19.807 13.5938C19.6105 13.2575 19.6845 12.8847 20.0096 12.5656C21.4102 11.1597 22.8131 9.75612 24.2184 8.35491C24.3693 8.205 24.5313 8.06623 24.6883 7.9224L24.6367 7.81097Z"
    fill="#A2A6CA" />
</svg>