<svg width="28" height="14" viewBox="0 0 28 14" fill="none" xmlns="http://www.w3.org/2000/svg">
  <path
    d="M2.89347 7.81097H3.37768C14.7224 7.81097 14.9331 7.81097 26.2819 7.81097C26.4854 7.81665 26.689 7.80206 26.8897 7.76742C27.0648 7.73352 27.2233 7.64144 27.3395 7.50611C27.4558 7.37078 27.5228 7.20014 27.5299 7.0219C27.5348 6.83713 27.4753 6.65638 27.3617 6.51059C27.2481 6.36481 27.0873 6.26304 26.9069 6.2227C26.7338 6.18935 26.5574 6.17576 26.3812 6.18219H2.80029C2.94919 6.02114 3.03529 5.91984 3.12949 5.82665C4.56684 4.38627 6.00924 2.94994 7.44051 1.50349C7.60344 1.34895 7.72496 1.15601 7.79399 0.942324C7.83615 0.787979 7.82489 0.623915 7.762 0.476798C7.6991 0.32968 7.58828 0.208158 7.44758 0.131983C7.30993 0.0395992 7.14637 -0.00639091 6.98074 0.000715328C6.81511 0.00782156 6.65608 0.0676539 6.52685 0.171489C6.41838 0.258029 6.31678 0.352852 6.22297 0.455107L0.320652 6.35033C-0.101738 6.77272 -0.107828 7.22246 0.308483 7.63776C2.29382 9.62107 4.28054 11.6024 6.26857 13.5816C6.43033 13.7554 6.63143 13.8877 6.85501 13.9675C7.2146 14.0688 7.52661 13.9301 7.72312 13.5938C7.91963 13.2575 7.84568 12.8847 7.52053 12.5656C6.12 11.1597 4.71707 9.75612 3.3118 8.35491C3.16088 8.205 2.99884 8.06623 2.84184 7.9224L2.89347 7.81097Z"
    fill="#A2A6CA" />
</svg>