<svg width="156" height="100" viewBox="0 0 156 100" fill="none" xmlns="http://www.w3.org/2000/svg">
  <path
    d="M0.0280432 99.0359L7.45614 82.8534C7.50331 82.7363 7.66772 82.642 7.80924 82.642C7.95077 82.642 8.09087 82.7363 8.13805 82.8534L15.5661 99.0359C15.6362 99.2002 15.5661 99.3173 15.3774 99.3173H13.073C12.8857 99.3173 12.697 99.2002 12.6269 99.0359L11.9693 97.6033C11.8049 97.2505 11.4289 97.0163 11.0287 97.0163H6.27959C6.09089 97.0163 6.02084 96.8992 6.09089 96.7349L7.05443 94.6682C7.12448 94.504 7.28888 94.3868 7.47758 94.3868H9.82781C10.2281 94.3868 10.3682 94.1526 10.2038 93.7755L8.08801 89.1722C7.99366 88.9836 7.89931 88.8908 7.80639 88.8908C7.71346 88.8908 7.61911 88.9851 7.52476 89.1722L2.9644 99.0359C2.89435 99.2002 2.70565 99.3173 2.54124 99.3173H0.215318C0.0266136 99.3173 -0.0434358 99.2002 0.0266136 99.0359H0.0280432Z"
    fill="#F1EFE9" />
  <path
    d="M20.2166 83.1834C20.2166 82.9948 20.3338 82.8777 20.5225 82.8777H22.7326C22.9199 82.8777 23.0386 82.9948 23.0386 83.1834V93.7527C23.0386 93.9412 22.9213 94.0583 22.7326 94.0583H20.5225C20.3338 94.0583 20.2166 93.9412 20.2166 93.7527V83.1834ZM20.2166 96.9935C20.2166 96.8064 20.3338 96.6878 20.5225 96.6878H30.561C30.7497 96.6878 30.8669 96.8049 30.8669 96.9935V99.013C30.8669 99.2016 30.7497 99.3187 30.561 99.3187H20.5225C20.3338 99.3187 20.2166 99.2016 20.2166 99.013V96.9935Z"
    fill="#F1EFE9" />
  <path
    d="M35.4216 83.1834C35.4216 82.9948 35.5388 82.8777 35.7275 82.8777H37.9376C38.1249 82.8777 38.2436 82.9948 38.2436 83.1834V93.7527C38.2436 93.9412 38.1263 94.0583 37.9376 94.0583H35.7275C35.5388 94.0583 35.4216 93.9412 35.4216 93.7527V83.1834ZM35.4216 96.9935C35.4216 96.8064 35.5388 96.6878 35.7275 96.6878H45.766C45.9547 96.6878 46.0719 96.8049 46.0719 96.9935V99.013C46.0719 99.2016 45.9547 99.3187 45.766 99.3187H35.7275C35.5388 99.3187 35.4216 99.2016 35.4216 99.013V96.9935Z"
    fill="#F1EFE9" />
  <path
    d="M50.5851 96.9463L52.3006 95.608C52.4421 95.5137 52.6065 95.5137 52.7238 95.6551C53.7574 96.8535 55.3328 97.2291 56.861 97.2291C58.1076 97.2291 59.9646 96.7592 59.9646 95.2095C59.9646 92.0387 50.8196 92.3915 50.8196 86.8712C50.8196 86.7069 50.9611 86.5655 51.1484 86.5655H53.287C53.4757 86.5655 53.593 86.6827 53.6158 86.8712C54.039 90.2534 62.7365 89.7135 62.7365 95.3024C62.7365 98.496 59.5872 100 56.7652 100C54.4378 100 52.0404 99.2016 50.5351 97.3691C50.4179 97.2277 50.4407 97.0634 50.5823 96.9463H50.5851ZM53.5472 82.7834C54.4164 82.4078 55.4271 82.1964 56.4621 82.1964C58.4836 82.1964 60.4578 83.1119 62.0103 84.4045C62.1519 84.5217 62.1519 84.7102 62.0332 84.8273L60.5993 86.4484C60.4578 86.5898 60.2934 86.5898 60.1762 86.4713C59.1183 85.5315 57.8016 84.9687 56.3678 84.9687C55.8974 84.9687 55.3571 85.0158 54.8867 85.1801C54.698 85.2501 54.5579 85.203 54.4636 85.0387L53.4286 83.1834C53.3342 83.042 53.3814 82.8549 53.5458 82.7834H53.5472Z"
    fill="#F1EFE9" />
  <path
    d="M66.7494 85.2029V83.1834C66.7494 82.9948 66.8666 82.8777 67.0553 82.8777H79.9844C80.1717 82.8777 80.2904 82.9948 80.2904 83.1834V85.2029C80.2904 85.3915 80.1731 85.5086 79.9844 85.5086H67.0553C66.8666 85.5086 66.7494 85.3915 66.7494 85.2029ZM72.086 88.091C72.086 87.9024 72.2275 87.7853 72.3919 87.7853H74.6021C74.7908 87.7853 74.908 87.9024 74.908 88.091V99.0116C74.908 99.2001 74.7908 99.3173 74.6021 99.3173H72.3919C72.2275 99.3173 72.086 99.2001 72.086 99.0116V88.091Z"
    fill="#F1EFE9" />
  <path
    d="M84.8607 99.013V82.9948C84.8607 82.9248 84.9079 82.8777 84.9779 82.8777H89.3968C90.0544 82.8777 90.4547 82.8777 90.7363 82.9006C96.3788 83.4176 97.1065 89.9234 93.0165 92.1073C92.6634 92.2958 92.5704 92.6 92.782 92.9057L97.1079 99.0588C97.2252 99.223 97.1551 99.3173 96.9664 99.3173H94.2159C94.0272 99.3173 93.8399 99.223 93.7227 99.0588L89.514 92.9985C89.4197 92.8571 89.3253 92.6458 89.3253 92.4586V90.4148C89.3253 90.2262 89.4425 90.1091 89.6312 90.1091H90.0544C93.6283 90.1091 93.604 85.5286 90.0544 85.5286H88.3389C87.9386 85.5286 87.6813 85.81 87.6813 86.2099V99.0102C87.6813 99.1987 87.5641 99.3158 87.3754 99.3158H85.1652C84.9765 99.3158 84.8593 99.1987 84.8593 99.0102L84.8607 99.013Z"
    fill="#F1EFE9" />
  <path
    d="M101.61 85.2029V83.1834C101.61 82.9948 101.727 82.8777 101.916 82.8777H111.954C112.143 82.8777 112.26 82.9948 112.26 83.1834V85.2029C112.26 85.3915 112.143 85.5086 111.954 85.5086H101.916C101.728 85.5086 101.61 85.3915 101.61 85.2029ZM101.61 90.0877C101.61 89.8992 101.727 89.782 101.916 89.782H111.954C112.143 89.782 112.26 89.8992 112.26 90.0877V92.1073C112.26 92.2958 112.143 92.4129 111.954 92.4129H101.916C101.728 92.4129 101.61 92.2958 101.61 92.1073V90.0877ZM101.916 96.6878H111.954C112.143 96.6878 112.26 96.8049 112.26 96.9935V99.013C112.26 99.2016 112.143 99.3187 111.954 99.3187H101.916C101.728 99.3187 101.61 99.2016 101.61 99.013V96.9935C101.61 96.8064 101.727 96.6878 101.916 96.6878Z"
    fill="#F1EFE9" />
  <path
    d="M116.712 99.0359L124.14 82.8534C124.187 82.7363 124.351 82.642 124.493 82.642C124.634 82.642 124.775 82.7363 124.822 82.8534L132.25 99.0359C132.32 99.2002 132.25 99.3173 132.061 99.3173H129.757C129.569 99.3173 129.381 99.2002 129.311 99.0359L128.653 97.6033C128.489 97.2505 128.113 97.0163 127.712 97.0163H122.963C122.775 97.0163 122.705 96.8992 122.775 96.7349L123.738 94.6682C123.808 94.504 123.973 94.3868 124.161 94.3868H126.512C126.912 94.3868 127.052 94.1526 126.888 93.7755L124.772 89.1722C124.677 88.9836 124.583 88.8908 124.49 88.8908C124.397 88.8908 124.301 88.9851 124.208 89.1722L119.648 99.0359C119.578 99.2002 119.389 99.3173 119.225 99.3173H116.898C116.709 99.3173 116.639 99.2002 116.709 99.0359H116.712Z"
    fill="#F1EFE9" />
  <path
    d="M136.813 99.013L139.188 83.1834C139.21 82.9948 139.352 82.8777 139.541 82.8777H139.87C140.058 82.8777 140.245 82.9948 140.316 83.1362L146.098 94.104C146.193 94.2926 146.31 94.3625 146.404 94.3625C146.521 94.3625 146.616 94.2926 146.71 94.104L152.493 83.1362C152.563 82.9948 152.751 82.8777 152.939 82.8777H153.268C153.432 82.8777 153.596 82.9948 153.621 83.1834L153.949 85.4858C153.972 85.6729 153.949 85.9085 153.855 86.0728L147.015 99.0373C146.92 99.2016 146.756 99.3187 146.569 99.3187H146.24C146.051 99.3187 145.887 99.2016 145.794 99.0373L141.281 90.5119C141.092 90.1591 140.927 90.2062 140.88 90.5819L139.588 99.013C139.565 99.2016 139.423 99.3187 139.235 99.3187H137.072C136.883 99.3187 136.79 99.2016 136.813 99.013ZM152.61 93.447L154.444 89.9477C154.538 89.7835 154.608 89.8063 154.633 89.9949L155.997 99.013C156.019 99.2016 155.927 99.3187 155.738 99.3187H153.575C153.386 99.3187 153.246 99.2016 153.222 99.013L152.493 94.034C152.47 93.8455 152.517 93.6113 152.61 93.447Z"
    fill="#F1EFE9" />
  <path d="M106.517 38.4223H81.1381V43.1899H106.517V38.4223Z" fill="#F1EFE9" />
  <path d="M88.4604 45.7908H83.6885V62.1747H88.4604V45.7908Z" fill="#4080AA" />
  <path d="M106.03 45.7908H101.258V57.8184H106.03V45.7908Z" fill="#4080AA" />
  <path d="M109.121 45.7908H78.5348V48.1746H109.121V45.7908Z" fill="#4080AA" />
  <path d="M87.0494 53.485L94.6962 46.9835L103.914 54.5677L102.287 56.4644L94.7506 49.9086L87.0494 56.4644V53.485Z"
    fill="#4080AA" />
  <path d="M92.9836 22.137H84.8436V23.8338H92.9836V22.137Z" fill="#F1EFE9" />
  <path d="M90.2703 18.9205H87.5569V23.8338H90.2703V18.9205Z" fill="#F1EFE9" />
  <path
    d="M87.7485 23.8338L87.0351 26.946L86.642 28.6471L85.6398 33.0305L84.815 36.6112L84.5162 37.9267L84.4004 38.4237H82.7264L84.0945 32.4721L84.5791 30.3439L86.0744 23.8338H87.7485Z"
    fill="#F1EFE9" />
  <path
    d="M95.2881 38.4237H93.6183L93.0837 36.0928L91.7084 30.104L91.464 29.0285L91.0708 27.3231L90.2703 23.8338H91.9443L92.5204 26.3419L95.2881 38.4237Z"
    fill="#F1EFE9" />
  <path
    d="M93.0837 36.0928L90.7892 34.5402L92.4675 33.4062L93.0765 32.9963L93.6198 33.3605L94.0386 32.9677L93.5254 30.7239L93.0779 31.0266L90.7921 29.4827L91.4668 29.0271L92.9121 28.0458L92.5233 26.3404L89.3339 28.4972L85.5898 25.9634L85.201 27.6645L86.6463 28.6457L87.8814 29.4812L85.5955 31.0252L84.5848 30.3425L84.1002 32.4706L85.0537 33.3605L85.597 32.9963L85.647 33.0291L87.8843 34.5402L83.8314 37.2797L84.5233 37.9253L85.0537 38.4223L89.3367 35.5243L93.624 38.4223L94.8463 37.2797L93.0894 36.0914L93.0837 36.0928ZM87.0437 32.0122L89.331 30.4639L91.6226 32.0122L89.331 33.5604L87.0437 32.0122Z"
    fill="#F1EFE9" />
  <path
    d="M96.0844 39.285V34.963H101.55L115.096 23.5881H117.773V41.6731H115.61V28.3086L105.534 40.8061L102.588 39.1279L113.275 28.0244L100.525 38.4223L96.0844 39.5121"
    fill="#F1EFE9" />
  <path
    d="M116.809 43.9755C118.082 43.9755 119.113 42.9447 119.113 41.6731C119.113 40.4015 118.082 39.3707 116.809 39.3707C115.536 39.3707 114.504 40.4015 114.504 41.6731C114.504 42.9447 115.536 43.9755 116.809 43.9755Z"
    fill="#F1EFE9" />
  <path
    d="M116.808 50.1928C116.05 50.1928 115.336 49.9043 114.792 49.3744C114.227 48.8259 113.916 48.089 113.916 47.302H115.092C115.092 47.769 115.276 48.2061 115.612 48.5317C115.947 48.8574 116.386 49.0316 116.858 49.0159C117.752 48.9916 118.5 48.2446 118.524 47.3505C118.543 46.6649 118.153 46.0336 117.531 45.7451C116.735 45.3752 116.22 44.5625 116.22 43.6755V43.1885H117.397V43.6755C117.397 44.1069 117.644 44.5011 118.027 44.6782C119.076 45.1652 119.732 46.2265 119.701 47.3819C119.66 48.8888 118.399 50.1485 116.89 50.19C116.863 50.19 116.835 50.19 116.808 50.19V50.1928Z"
    fill="#F1EFE9" />
  <path
    d="M147.997 65.5112C146.553 64.8842 145.159 64.2243 143.654 63.6358C139.932 62.179 135.837 61.0906 131.053 60.845C128.2 60.6979 125.362 60.825 122.567 61.2277C118.523 61.8105 114.89 62.786 111.457 63.9715C108.682 64.9299 106.157 66.0396 103.637 67.1537C100.137 68.7005 96.4632 70.1203 92.1845 71.1072C89.464 71.7356 86.6263 72.1356 83.6499 72.3327C77.3283 72.7497 71.5399 71.9427 66.0446 70.4673C62.6451 69.5547 59.6401 68.372 56.7881 67.0766C53.7102 65.6783 51.0011 64.1058 48.1034 62.6232C45.4758 61.2792 42.781 59.9709 39.8147 58.8097C37.24 57.8027 34.4437 56.9829 31.3873 56.3973C30.5181 56.2302 29.6046 56.1202 28.7168 55.8988C29.9277 55.8988 31.1457 55.8545 32.3465 55.9074C36.641 56.0973 40.741 56.6487 44.5523 57.6742C47.3185 58.4183 49.8746 59.3238 52.385 60.2608C55.7087 61.502 58.9439 62.8046 62.5721 63.8287C65.9846 64.7913 69.6114 65.4155 73.527 65.6397C79.9287 66.0068 85.8872 65.3255 91.564 63.8672C94.8449 63.0245 97.9099 62.0062 101.049 61.0464C104.696 59.9323 108.414 58.8896 112.417 58.1198C115.797 57.4699 119.268 57.0557 122.896 56.9129C127.664 56.7258 132.161 57.1814 136.479 58.1484C138.982 58.7097 141.112 59.5395 142.872 60.585C143.521 60.9707 144.047 61.4163 144.52 61.8633C145.779 63.0545 146.923 64.2757 147.98 65.5155L147.995 65.5083L147.997 65.5112Z"
    fill="#F1EFE9" />
  <path
    d="M59.1297 60.9335C60.8252 61.1406 62.3563 61.2934 63.9031 61.3706C65.4899 61.4491 67.081 61.482 68.6922 61.4406C70.615 61.392 72.5092 61.282 74.3919 61.1035C78.4791 60.7136 82.4362 60.0951 86.306 59.3424C90.682 58.4912 95.0193 57.5885 99.3995 56.7415C103.903 55.8717 108.552 55.2447 113.357 54.9776C115.681 54.849 118.026 54.8262 120.389 54.9062C124.37 55.0418 128.208 55.4489 131.948 56.1102C135.991 56.8258 139.601 57.897 142.571 59.4624C143.352 59.8737 144.065 60.3122 144.643 60.8007C144.441 60.9135 144.344 60.8064 144.284 60.7664C142.05 59.2839 139.042 58.3226 135.699 57.5885C132.887 56.97 129.938 56.5444 126.892 56.4087C124.133 56.2859 121.349 56.2802 118.569 56.443C110.963 56.89 104.077 58.3369 97.4396 60.1465C95.0679 60.7935 92.722 61.462 90.3374 62.0947C86.8493 63.0202 83.1409 63.6287 79.211 63.8529C74.1103 64.1429 69.244 63.6858 64.6007 62.6118C63.4628 62.349 62.3291 62.079 61.2927 61.7234C60.6179 61.492 59.8417 61.332 59.1326 60.9307L59.1297 60.9335Z"
    fill="#4080AA" />
  <path
    d="M8.00224 58.0727C10.0194 57.5999 12.1609 57.3028 14.3396 57.0657C16.2152 56.8615 18.1079 56.7087 20.0336 56.7201C23.3216 56.7415 26.4796 57.08 29.4917 57.7384C32.8969 58.4826 35.8962 59.5509 38.7296 60.7293C42.4623 62.2818 45.9662 63.9629 49.5244 65.6126C53.1698 67.3023 56.9167 68.9362 61.0654 70.3202C65.6043 71.8342 70.4691 72.9868 75.8915 73.4396C79.5141 73.7424 83.1466 73.6781 86.7277 73.2253C92.1873 72.5355 96.9321 71.1758 101.264 69.4075C104.356 68.1449 107.199 66.7366 110.409 65.544C113.652 64.3386 117.142 63.3902 121.212 63.1088C123.394 62.9574 125.584 62.9617 127.737 63.2602C128.001 63.2973 128.27 63.3245 128.637 63.5216C128.008 63.483 127.551 63.423 127.102 63.4016C121.841 63.1602 117.231 64.0215 112.969 65.4669C111.086 66.1053 109.361 66.8423 107.671 67.6022C105.547 68.5563 103.49 69.5504 101.279 70.4573C97.3452 72.0713 93.1037 73.4196 88.1802 74.1623C86.3418 74.4394 84.4633 74.6036 82.5419 74.6893C74.4277 75.0493 67.2798 73.7552 60.6622 71.5443C56.9096 70.2902 53.49 68.8291 50.2063 67.2865C47.3814 65.9611 44.6052 64.6085 41.7303 63.3102C38.8011 61.9876 35.879 60.655 32.5081 59.5981C29.4459 58.6383 26.135 58.0327 22.5654 57.7584C21.0543 57.6428 19.5289 57.5442 18.0122 57.5656C15.8678 57.597 13.7191 57.667 11.5905 57.8399C10.3996 57.937 9.1988 57.997 8.00224 58.0741V58.0727Z"
    fill="#4080AA" />
  <path
    d="M40.5223 21.0958C41.6774 21.0958 42.6138 20.1602 42.6138 19.0062C42.6138 17.8522 41.6774 16.9166 40.5223 16.9166C39.3672 16.9166 38.4308 17.8522 38.4308 19.0062C38.4308 20.1602 39.3672 21.0958 40.5223 21.0958Z"
    fill="#F1EFE9" />
  <path d="M41.6488 17.7093V0H40.731L38.4308 13.6558C38.4308 13.6558 40.345 14.5728 40.345 17.7093" fill="#F1EFE9" />
  <path
    d="M38.834 18.6805L23.4832 27.5345L23.9421 28.3286L36.9298 23.491C36.9298 23.491 36.7668 21.3772 39.4859 19.8089"
    fill="#F1EFE9" />
  <path
    d="M41.0841 20.6302L56.435 29.4841L56.8939 28.69L46.2078 19.8717C46.2078 19.8717 44.4565 21.0701 41.7375 19.5018"
    fill="#F1EFE9" />
  <path d="M42.4108 57.3257H38.4294L39.4873 19.0076H41.3529L42.4108 57.3257Z" fill="#F1EFE9" />
  <path
    d="M52.5637 40.6504C53.2387 40.6504 53.786 40.1037 53.786 39.4293C53.786 38.7548 53.2387 38.2081 52.5637 38.2081C51.8886 38.2081 51.3414 38.7548 51.3414 39.4293C51.3414 40.1037 51.8886 40.6504 52.5637 40.6504Z"
    fill="#F1EFE9" />
  <path d="M53.2213 38.6708V28.3286H52.6852L51.3414 36.3027C51.3414 36.3027 52.4593 36.8383 52.4593 38.6694"
    fill="#F1EFE9" />
  <path
    d="M51.5787 39.2393L42.6152 44.4097L42.8825 44.8739L50.4665 42.0487C50.4665 42.0487 50.3721 40.8133 51.959 39.8977"
    fill="#F1EFE9" />
  <path
    d="M52.8925 40.3762L61.8559 45.5466L62.1233 45.0824L55.8831 39.9334C55.8831 39.9334 54.8596 40.6333 53.2727 39.7178"
    fill="#F1EFE9" />
  <path d="M53.6673 61.8062H51.3428L51.9604 39.4293H53.0497L53.6673 61.8062Z" fill="#F1EFE9" />
  <path
    d="M66.545 62.1761H65.3684V55.0961C65.3684 52.9123 67.1468 51.1369 69.3341 51.1369H71.3126V52.3124H69.3341C67.7958 52.3124 66.545 53.5607 66.545 55.0961V62.1761Z"
    fill="#4080AA" />
  <path
    d="M80.9165 62.1761H79.74V55.0961C79.74 53.5607 78.4891 52.3124 76.9509 52.3124H75.1553V51.1369H76.9509C79.1367 51.1369 80.9165 52.9137 80.9165 55.0961V62.1761Z"
    fill="#4080AA" />
  <path
    d="M74.3076 50.8084V50.9784C74.0703 50.6399 73.6786 50.4185 73.234 50.4185C72.7894 50.4185 72.3991 50.6399 72.1603 50.9784V50.8084H71.6914V52.6423H72.1603V52.4724C72.3977 52.8109 72.7894 53.0322 73.234 53.0322C73.6786 53.0322 74.0688 52.8109 74.3076 52.4724V52.6423H74.7765V50.8084H74.3076ZM73.6299 51.9039H72.8394C72.7408 51.9039 72.6607 51.8239 72.6607 51.7254C72.6607 51.6268 72.7408 51.5468 72.8394 51.5468H73.6299C73.7286 51.5468 73.8086 51.6268 73.8086 51.7254C73.8086 51.8239 73.7286 51.9039 73.6299 51.9039Z"
    fill="#4080AA" />
</svg>